<?xml version="1.0" encoding="UTF-8" standalone="no"?>
<svg
   xml:space="preserve"
   width="128"
   height="25.723871"
   version="1.1"
   style="clip-rule:evenodd;fill-rule:evenodd;image-rendering:optimizeQuality;shape-rendering:geometricPrecision;text-rendering:geometricPrecision"
   viewBox="0 0 128 25.754495"
   id="svg18"
   sodipodi:docname="carsync-logo.svg"
   inkscape:version="1.1 (1:1.1+202105261517+ce6663b3b7)"
   xmlns:inkscape="http://www.inkscape.org/namespaces/inkscape"
   xmlns:sodipodi="http://sodipodi.sourceforge.net/DTD/sodipodi-0.dtd"
   xmlns="http://www.w3.org/2000/svg"
   xmlns:svg="http://www.w3.org/2000/svg"><sodipodi:namedview
   id="namedview20"
   pagecolor="#ffffff"
   bordercolor="#666666"
   borderopacity="1.0"
   inkscape:pageshadow="2"
   inkscape:pageopacity="0.0"
   inkscape:pagecheckerboard="0"
   showgrid="false"
   inkscape:zoom="1.4551971"
   inkscape:cx="91.396553"
   inkscape:cy="53.600986"
   inkscape:window-width="1366"
   inkscape:window-height="703"
   inkscape:window-x="0"
   inkscape:window-y="0"
   inkscape:window-maximized="1"
   inkscape:current-layer="Layer_x0020_1" />
 <defs
   id="defs4">
  <style
   type="text/css"
   id="style2">
   <![CDATA[
    .fil0 {fill:#1515AF}
    .fil2 {fill:#343A40;fill-rule:nonzero}
    .fil1 {fill:white;fill-rule:nonzero}
   ]]>
  </style>
 </defs>
 <g
   id="Layer_x0020_1"
   inkscape:label="car-sync-logo"
   transform="translate(-0.49821429)"><rect
   class="fil0"
   width="55.665905"
   height="25.754496"
   id="rect6"
   x="0"
   y="0"
   style="fill:#ffffff;fill-opacity:1;stroke-width:1" /><path
   class="fil2"
   d="m 66.871965,2.9075433 c 1.312146,0 2.465058,0.2909075 3.460268,0.8711913 0.99521,0.5818148 1.776066,1.3366431 2.339508,2.2660158 0.116363,0.1822 0.174545,0.3812419 0.174545,0.5971258 0,0.3154049 -0.148516,0.5649729 -0.44861,0.7471728 -0.131674,0.065837 -0.281721,0.099521 -0.447079,0.099521 -0.183731,0 -0.353682,-0.045933 -0.509854,-0.1377983 C 71.283041,7.2604373 71.152898,7.1318256 71.053377,6.9649366 70.124004,5.5058061 68.723055,4.7662888 66.847468,4.7509779 c -1.344299,0 -2.406876,0.2817208 -3.186202,0.8451626 -0.779326,0.5649729 -1.169754,1.3687961 -1.169754,2.4145318 0,1.9414244 1.567838,3.1203647 4.705045,3.5337597 2.057787,0.300094 3.591941,0.929373 4.603993,1.89243 1.012052,0.961525 1.518843,2.2308 1.518843,3.807825 0,1.162099 -0.283252,2.164964 -0.846694,3.011658 -0.563442,0.846693 -1.335112,1.489752 -2.315011,1.929175 -0.978367,0.439424 -2.073098,0.659901 -3.285723,0.659901 -1.575493,0 -2.974911,-0.33684 -4.19366,-1.00899 -1.22028,-0.672149 -2.094534,-1.580086 -2.625822,-2.725343 -0.06584,-0.116363 -0.09952,-0.248037 -0.09952,-0.398084 0,-0.232726 0.08727,-0.427175 0.260285,-0.584877 0.174545,-0.157703 0.411864,-0.237319 0.710427,-0.237319 0.199042,0 0.385835,0.05512 0.560379,0.162295 0.173014,0.108708 0.301625,0.261817 0.385836,0.460859 0.381241,0.745642 1.016645,1.347361 1.903147,1.805157 0.888033,0.456266 1.92152,0.684398 3.098929,0.684398 1.361141,0 2.455872,-0.329184 3.285723,-0.984492 0.829852,-0.655307 1.244778,-1.5709 1.244778,-2.749841 0,-1.045735 -0.385835,-1.924582 -1.157505,-2.638071 -0.771671,-0.713489 -1.929176,-1.169754 -3.472517,-1.368796 -1.924582,-0.232726 -3.438832,-0.834445 -4.541218,-1.805157 -1.103917,-0.970712 -1.65511,-2.1619017 -1.65511,-3.5720372 0,-0.9952097 0.269472,-1.8709942 0.808416,-2.6258225 0.538945,-0.7548282 1.286118,-1.3366431 2.239988,-1.7423824 0.95387,-0.4057394 2.037883,-0.6093746 3.248977,-0.6093746 z m 22.67547,0.249568 c 0.249568,0 0.453203,0.087272 0.610906,0.2602856 0.156171,0.1745445 0.235788,0.3873662 0.235788,0.6354031 0,0.2327259 -0.05818,0.4394233 -0.174545,0.6231544 L 83.424599,15.402784 v 6.223888 c 0,0.264879 -0.09187,0.493011 -0.274066,0.684398 -0.182199,0.189855 -0.414925,0.286314 -0.696646,0.286314 -0.264879,0 -0.494543,-0.09646 -0.684398,-0.286314 -0.191387,-0.191387 -0.286314,-0.419519 -0.286314,-0.684398 V 15.402784 L 74.712687,4.6759544 C 74.579482,4.4600704 74.513645,4.2518419 74.513645,4.0528 c 0,-0.2480369 0.09033,-0.4608586 0.274065,-0.6354031 0.1822,-0.1730134 0.405739,-0.2602856 0.672149,-0.2602856 0.1822,0 0.335309,0.036746 0.460859,0.1117697 0.124018,0.075023 0.243444,0.1944487 0.359807,0.3613377 l 6.197859,9.9811873 6.173362,-9.9321924 c 0.133205,-0.1821999 0.264879,-0.3154049 0.398084,-0.3980839 0.133205,-0.082679 0.298563,-0.1240184 0.497605,-0.1240184 z m 17.572345,0.9707122 c 0,-0.2817209 0.0964,-0.5144469 0.28631,-0.6966468 0.19139,-0.1821999 0.41952,-0.2740654 0.6844,-0.2740654 0.28325,0 0.51444,0.091865 0.69818,0.2740654 0.1822,0.1821999 0.27253,0.4149259 0.27253,0.6966468 V 21.626672 c 0,0.264879 -0.0903,0.493011 -0.27253,0.684398 -0.18374,0.191386 -0.41646,0.286314 -0.69818,0.286314 -0.33072,0 -0.57263,-0.108708 -0.72115,-0.324592 L 95.446732,6.6418762 V 21.626672 c 0,0.264879 -0.09187,0.493011 -0.274066,0.684398 -0.1822,0.191386 -0.414926,0.286314 -0.696646,0.286314 -0.283252,0 -0.514447,-0.09187 -0.696647,-0.274066 -0.183731,-0.182199 -0.274066,-0.414925 -0.274066,-0.696646 V 4.1278235 c 0,-0.2817209 0.09033,-0.5144469 0.274066,-0.6966468 0.1822,-0.1821999 0.414926,-0.2740654 0.696647,-0.2740654 0.298562,0 0.546599,0.116363 0.745641,0.3490889 L 107.11978,19.137116 V 4.1293546 Z m 14.66173,-1.2202802 c 1.19425,0 2.28133,0.1745445 3.2597,0.5236334 0.97836,0.3475579 1.92458,0.9048753 2.83711,1.667359 0.18373,0.133205 0.27406,0.3245915 0.27406,0.5726283 0,0.133205 -0.0337,0.2526302 -0.0995,0.3613377 -0.0658,0.1071764 -0.1577,0.1852621 -0.27406,0.2357881 -0.0322,0.116363 -0.10718,0.2082285 -0.22354,0.2740655 -0.11637,0.065837 -0.24038,0.099521 -0.37359,0.099521 -0.24804,0 -0.45626,-0.075023 -0.62315,-0.2235394 C 125.91242,5.836522 125.20658,5.4139407 124.4441,5.1475307 123.68008,4.8826519 122.79358,4.750978 121.78,4.750978 c -1.39329,0 -2.6886,0.3689931 -3.88285,1.1069793 -1.19425,0.7379863 -2.14506,1.7301338 -2.84936,2.9749114 -0.70583,1.2447773 -1.05799,2.5890763 -1.05799,4.0313643 0,1.477504 0.34909,2.838645 1.04574,4.081891 0.69665,1.244778 1.64286,2.232332 2.83711,2.962663 1.19425,0.73033 2.49721,1.09473 3.90735,1.09473 1.80975,0 3.44343,-0.580283 4.90256,-1.740851 0.18373,-0.133205 0.36593,-0.200573 0.54813,-0.200573 0.24956,0 0.46545,0.08727 0.64765,0.261817 0.1822,0.174544 0.27253,0.402677 0.27253,0.684398 0,0.264879 -0.0903,0.497604 -0.27253,0.696646 -1.56018,1.426978 -3.59347,2.141998 -6.09834,2.141998 -1.75922,0 -3.37759,-0.44861 -4.85356,-1.344299 -1.47751,-0.89722 -2.65185,-2.108313 -3.52304,-3.634812 -0.87119,-1.526498 -1.30602,-3.193857 -1.30602,-5.003608 0,-1.791377 0.43176,-3.4510805 1.29377,-4.977579 0.86353,-1.5264986 2.03329,-2.7375922 3.50926,-3.6332809 1.4775,-0.8972198 3.10352,-1.3442986 4.87806,-1.3442986 z"
   id="path10"
   style="fill:#ffffff;stroke-width:1" /><path
   id="path14"
   style="fill:#4747be;fill-opacity:1;stroke-width:1"
   class="fil1"
   d="m 12.484636,5.3143032 c -1.423915,0 -2.7146692,0.3293424 -3.8691123,0.9877119 C 7.4610804,6.9619156 6.554467,7.8666646 5.8960975,9.0226389 5.2377279,10.175551 4.9086849,11.466305 4.9086849,12.891751 c 0,1.405542 0.329043,2.687124 0.9874126,3.841568 0.6583695,1.154443 1.5649829,2.060757 2.7194262,2.719127 1.1544431,0.658368 2.4451973,0.987712 3.8691123,0.987712 1.281524,0 2.440318,-0.275778 3.478398,-0.825439 0.711958,-0.37818 1.319867,-0.852572 1.825126,-1.422137 l -1.025734,-1.026035 c -0.3644,0.378179 -0.779409,0.701405 -1.246391,0.973939 -0.901814,0.522103 -1.912205,0.783822 -3.029902,0.783822 -1.119228,0 -2.129885,-0.261719 -3.0316979,-0.783822 -0.901813,-0.523633 -1.6137644,-1.244756 -2.1373978,-2.164942 -0.5221024,-0.920186 -0.7838222,-1.94922 -0.7838222,-3.08529 0,-1.13607 0.2617198,-2.165104 0.7838222,-3.0852897 0.5236334,-0.9186551 1.2355848,-1.6456294 2.1373978,-2.1769182 0.9018129,-0.53282 1.9124699,-0.799391 3.0316979,-0.799391 1.117697,0 2.128088,0.266571 3.029902,0.799391 0.462389,0.2725342 0.874308,0.5955287 1.234115,0.9706462 L 17.874088,7.4747546 C 17.420885,7.0215514 16.904923,6.6311999 16.327701,6.3020151 15.173257,5.6436456 13.893206,5.3143032 12.486133,5.3143032 Z m 14.00491,0 c -1.425447,0 -2.714634,0.3293424 -3.87061,0.9877119 -1.154442,0.6583694 -2.06109,1.5646837 -2.717927,2.7191268 -0.659902,1.1544431 -0.988911,2.4451971 -0.988911,3.8691121 0,1.407073 0.330541,2.688621 0.988911,3.843065 0.656837,1.154443 1.563485,2.060757 2.717927,2.719127 1.154445,0.658368 2.445163,0.987712 3.87061,0.987712 1.279992,0 2.438822,-0.275778 3.476903,-0.825439 1.036549,-0.549662 1.852576,-1.304451 2.448171,-2.259852 v 2.111351 c 0,0.232725 0.07683,0.427123 0.229938,0.580232 0.153109,0.154641 0.347471,0.231434 0.581728,0.231434 0.252631,0 0.451579,-0.07679 0.595502,-0.231434 0.143923,-0.153109 0.215865,-0.345975 0.215865,-0.580232 v -6.575964 c 0,-1.425446 -0.329043,-2.714669 -0.987413,-3.8691121 C 32.391872,7.8666988 31.485257,6.9603845 30.330815,6.3020151 29.176371,5.6436456 27.89662,5.3143032 26.489546,5.3143032 Z m 17.399179,0 c -1.407073,0 -2.687124,0.3293424 -3.841569,0.9877119 C 38.892714,6.9603845 37.9864,7.8666988 37.32803,9.0211419 36.669661,10.175585 36.340318,11.464808 36.340318,12.890254 v 6.575964 c 0,0.234257 0.07224,0.427123 0.216165,0.580232 0.143923,0.154641 0.342872,0.231434 0.595502,0.231434 0.234257,0 0.42862,-0.07679 0.581729,-0.231434 0.150046,-0.150048 0.228107,-0.341322 0.229637,-0.569455 v -0.01078 -2.11135 -4.464613 c 0,-1.13607 0.257401,-2.164839 0.771847,-3.0834939 0.514446,-0.920186 1.221812,-1.6458946 2.123626,-2.1787145 0.901812,-0.5328199 1.91217,-0.797894 3.031398,-0.797894 1.117697,0 2.128388,0.2650741 3.0302,0.797894 0.901813,0.5328199 1.615296,1.2585285 2.137398,2.1787145 0.523634,0.9186549 0.785319,1.9474239 0.785319,3.0834939 h 1.623033 c 0,-1.423916 -0.329342,-2.714669 -0.987712,-3.8691126 C 49.82009,7.8667003 48.913778,6.9603861 47.759334,6.3020166 46.604891,5.6436472 45.314137,5.3143048 43.890222,5.3143048 Z M 26.489546,6.8286551 c 1.117697,0 2.128088,0.266571 3.029902,0.799391 0.903343,0.5312888 1.610676,1.256732 2.125122,2.1769182 0.514448,0.9201857 0.77005,1.9492197 0.77005,3.0852897 0,1.13607 -0.255602,2.165104 -0.77005,3.08529 -0.514446,0.920186 -1.223309,1.641343 -2.125122,2.163446 -0.901814,0.523632 -1.912205,0.785318 -3.029902,0.785318 -1.119227,1e-6 -2.128353,-0.261686 -3.031698,-0.785318 -0.900282,-0.522103 -1.613765,-1.24326 -2.137397,-2.163446 -0.522102,-0.920186 -0.783823,-1.94922 -0.783823,-3.08529 0,-1.13607 0.261721,-2.165104 0.783823,-3.0852897 0.523632,-0.9186551 1.235584,-1.6456294 2.137397,-2.1769182 0.901814,-0.53282 1.912471,-0.799391 3.031698,-0.799391 z" />

  
 </g>
</svg>
