<?xml version="1.0" encoding="UTF-8" standalone="no"?>
<!-- Generator: Adobe Illustrator 18.1.1, SVG Export Plug-In . SVG Version: 6.00 Build 0)  -->

<svg
   version="1.1"
   id="Capa_1"
   x="0px"
   y="0px"
   viewBox="0 0 80.000001 79.66694"
   xml:space="preserve"
   sodipodi:docname="facebook-icon.svg"
   inkscape:version="1.1 (1:1.1+202105261517+ce6663b3b7)"
   width="80"
   height="79.666939"
   xmlns:inkscape="http://www.inkscape.org/namespaces/inkscape"
   xmlns:sodipodi="http://sodipodi.sourceforge.net/DTD/sodipodi-0.dtd"
   xmlns="http://www.w3.org/2000/svg"
   xmlns:svg="http://www.w3.org/2000/svg"><defs
   id="defs39" /><sodipodi:namedview
   id="namedview37"
   pagecolor="#ffffff"
   bordercolor="#666666"
   borderopacity="1.0"
   inkscape:pageshadow="2"
   inkscape:pageopacity="0.0"
   inkscape:pagecheckerboard="0"
   showgrid="false"
   inkscape:zoom="1.1282026"
   inkscape:cx="171.95493"
   inkscape:cy="31.909162"
   inkscape:window-width="1366"
   inkscape:window-height="703"
   inkscape:window-x="0"
   inkscape:window-y="0"
   inkscape:window-maximized="1"
   inkscape:current-layer="g4" />
<g
   id="g4"
   transform="translate(0,-0.349)">
	<path
   style="fill:#3b5998;stroke-width:0.999999"
   d="M 40.000239,0.349 C 17.908945,0.349 0,18.257945 0,40.349239 0,60.162548 14.420871,76.571288 33.328999,79.748727 V 48.694372 H 23.679775 V 37.519175 h 9.649224 v -8.240157 c 0,-9.560949 5.839542,-14.77111 14.369815,-14.77111 4.085484,0 7.596462,0.304431 8.615686,0.438514 v 9.993737 l -5.916365,0.0029 c -4.638041,0 -5.532248,2.203547 -5.532248,5.438246 v 7.132181 h 11.066881 l -1.443423,11.17516 H 44.865887 V 80.015939 C 64.65677,77.607212 80,60.780476 80,40.337787 80,18.257945 62.091055,0.349 40.000239,0.349 Z"
   id="path2" />
</g>















</svg>
