<?xml version="1.0" encoding="UTF-8" standalone="no"?>
<svg
   enable-background="new 0 0 512 512"
   id="Layer_1"
   version="1.1"
   viewBox="0 0 80 80"
   xml:space="preserve"
   sodipodi:docname="instagram-icon.svg"
   inkscape:version="1.1 (1:1.1+202105261517+ce6663b3b7)"
   width="80"
   height="80"
   xmlns:inkscape="http://www.inkscape.org/namespaces/inkscape"
   xmlns:sodipodi="http://sodipodi.sourceforge.net/DTD/sodipodi-0.dtd"
   xmlns="http://www.w3.org/2000/svg"
   xmlns:svg="http://www.w3.org/2000/svg"><defs
     id="defs28" /><sodipodi:namedview
     id="namedview26"
     pagecolor="#ffffff"
     bordercolor="#666666"
     borderopacity="1.0"
     inkscape:pageshadow="2"
     inkscape:pageopacity="0.0"
     inkscape:pagecheckerboard="0"
     showgrid="false"
     inkscape:zoom="2.0898438"
     inkscape:cx="18.183178"
     inkscape:cy="28.949533"
     inkscape:window-width="1366"
     inkscape:window-height="703"
     inkscape:window-x="0"
     inkscape:window-y="0"
     inkscape:window-maximized="1"
     inkscape:current-layer="g23"
     inkscape:lockguides="true" /><g
     id="g23"
     style="display:inline"
     transform="translate(0,0.017679)"><g
       id="Background_1_"
       style="display:inline"><radialGradient
         cx="51.992401"
         cy="13.5086"
         gradientTransform="matrix(0.05660333,-1.08,0.918,0.04811315,-5.988,520.5566)"
         gradientUnits="userSpaceOnUse"
         id="SVGID_1_"
         r="684.44489"><stop
           offset="0"
           style="stop-color:#FED576"
           id="stop2" /><stop
           offset="0.2634"
           style="stop-color:#F47133"
           id="stop4" /><stop
           offset="0.6091"
           style="stop-color:#BC3081"
           id="stop6" /><stop
           offset="1"
           style="stop-color:#4C63D2"
           id="stop8" /></radialGradient></g><path
       d="m 0,38.968112 v 2.156176 c 0.5625,20.686786 17.21875,37.295587 37.046875,38.858033 h 6.09375 C 63.078125,78.404251 79.453125,61.654829 80,41.093039 V 38.968112 C 79.453125,18.04696 62.515625,1.0787955 42.09375,0.03195673 20.125,-1.07738 0.609375,16.547012 0,38.968112 Z"
       fill="url(#SVGID_1_)"
       id="path11"
       style="display:inline;fill:#c1367a;fill-opacity:1;stroke-width:1" /><g
       id="g20"
       style="display:inline;stroke-width:6.40011"
       transform="matrix(0.15625,0,0,0.1562446,0,-0.01491727)"><path
         d="m 257.2,128.6 c 40.8,0 45.6,0.1 61.8,0.9 14.9,0.6 22.9,3.2 28.3,5.3 7.1,2.8 12.2,6.2 17.5,11.6 5.3,5.4 8.7,10.6 11.5,17.8 2.1,5.5 4.5,13.7 5.3,28.9 0.8,16.4 0.9,21.3 0.9,62.8 0,41.5 -0.1,46.4 -0.9,62.8 -0.6,15.1 -3.1,23.4 -5.3,28.9 -2.8,7.2 -6.1,12.4 -11.5,17.8 -5.3,5.4 -10.4,8.8 -17.5,11.6 -5.4,2.2 -13.5,4.7 -28.3,5.3 -16.1,0.8 -21,0.9 -61.8,0.9 -40.8,0 -45.6,-0.1 -61.8,-0.9 -14.9,-0.6 -22.9,-3.2 -28.3,-5.3 -7.1,-2.8 -12.2,-6.2 -17.5,-11.6 -5.3,-5.4 -8.7,-10.6 -11.5,-17.8 -2.1,-5.5 -4.5,-13.7 -5.3,-28.9 -0.8,-16.4 -0.9,-21.3 -0.9,-62.8 0,-41.5 0.1,-46.4 0.9,-62.8 0.6,-15.1 3.1,-23.4 5.3,-28.9 2.8,-7.2 6.1,-12.4 11.5,-17.8 5.3,-5.4 10.4,-8.8 17.5,-11.6 5.4,-2.2 13.5,-4.7 28.3,-5.3 16.1,-0.7 21,-0.9 61.8,-0.9 m 0,-28 c -41.5,0 -46.7,0.2 -62.9,1 -16.2,0.8 -27.4,3.4 -37.1,7.2 -10.1,4 -18.6,9.3 -27,18 -8.5,8.7 -13.7,17.3 -17.6,27.6 -3.8,9.8 -6.4,21.2 -7.1,37.7 -0.8,16.5 -0.9,21.8 -0.9,64 0,42.2 0.2,47.5 0.9,64 0.8,16.5 3.4,27.8 7.1,37.7 3.9,10.2 9.1,18.9 17.6,27.6 8.5,8.7 17,14 27,18 9.7,3.9 20.9,6.5 37.1,7.2 16.3,0.8 21.5,1 62.9,1 41.4,0 46.7,-0.2 62.9,-1 16.2,-0.8 27.4,-3.4 37.1,-7.2 10.1,-4 18.6,-9.3 27,-18 8.5,-8.7 13.7,-17.3 17.6,-27.6 3.8,-9.8 6.4,-21.2 7.1,-37.7 0.8,-16.5 0.9,-21.8 0.9,-64 0,-42.2 -0.2,-47.5 -0.9,-64 -0.8,-16.5 -3.4,-27.8 -7.1,-37.7 -3.9,-10.2 -9.1,-18.9 -17.6,-27.6 -8.5,-8.7 -17,-14 -27,-18 -9.7,-3.9 -20.9,-6.5 -37.1,-7.2 -16.2,-0.8 -21.5,-1 -62.9,-1 z"
         fill="#ffffff"
         id="path14"
         style="stroke-width:40.9607" /><path
         d="m 257.2,176.2 c -43.4,0 -78.4,35.7 -78.4,79.8 0,44.1 35.1,79.8 78.4,79.8 43.3,0 78.4,-35.7 78.4,-79.8 0,-44.1 -35.1,-79.8 -78.4,-79.8 z m 0,131.6 c -28.1,0 -50.9,-23.1 -50.9,-51.8 0,-28.7 22.8,-51.8 50.9,-51.8 28.1,0 50.9,23.1 50.9,51.8 0,28.7 -22.8,51.8 -50.9,51.8 z"
         fill="#ffffff"
         id="path16"
         style="stroke-width:40.9607" /><ellipse
         cx="338.70001"
         cy="173"
         fill="#ffffff"
         rx="18.299999"
         ry="18.6"
         id="ellipse18"
         style="stroke-width:40.9607" /></g></g></svg>
