<?xml version="1.0" encoding="UTF-8" standalone="no"?>
<!-- Generator: Adobe Illustrator 19.0.0, SVG Export Plug-In . SVG Version: 6.00 Build 0)  -->

<svg
   version="1.1"
   id="Layer_1"
   x="0px"
   y="0px"
   viewBox="0 0 80 80"
   xml:space="preserve"
   sodipodi:docname="twitter-icon.svg"
   inkscape:version="1.1 (1:1.1+202105261517+ce6663b3b7)"
   width="80"
   height="80"
   xmlns:inkscape="http://www.inkscape.org/namespaces/inkscape"
   xmlns:sodipodi="http://sodipodi.sourceforge.net/DTD/sodipodi-0.dtd"
   xmlns="http://www.w3.org/2000/svg"
   xmlns:svg="http://www.w3.org/2000/svg"><defs
   id="defs41" /><sodipodi:namedview
   id="namedview39"
   pagecolor="#ffffff"
   bordercolor="#666666"
   borderopacity="1.0"
   inkscape:pageshadow="2"
   inkscape:pageopacity="0.0"
   inkscape:pagecheckerboard="0"
   showgrid="false"
   inkscape:zoom="0.64929189"
   inkscape:cx="178.65617"
   inkscape:cy="180.19631"
   inkscape:window-width="1366"
   inkscape:window-height="703"
   inkscape:window-x="0"
   inkscape:window-y="0"
   inkscape:window-maximized="1"
   inkscape:current-layer="g6" />
<g
   id="g6">
	<path
   style="fill:#50abf1;stroke-width:0.999998"
   d="m 39.999864,0 c 22.092618,0 40.000135,17.909989 40.000135,40.000136 0,22.09262 -17.907517,39.999863 -40.000135,39.999863 C 17.907242,79.999999 0,62.092482 0,40.000136 0,17.909989 17.907517,0 39.999864,0 Z"
   id="path2" />
	<path
   style="fill:#ffffff;stroke-width:1"
   d="m 65.007502,26.947505 c -1.747363,0.754911 -3.627639,1.262396 -5.59991,1.492522 2.015111,-1.172598 3.560084,-3.025138 4.287534,-5.23742 -1.884944,1.087467 -3.970081,1.875058 -6.192524,2.297413 -1.777571,-1.837436 -4.310052,-2.985044 -7.11495,-2.985044 -5.379945,0 -9.744919,4.232611 -9.744919,9.457399 0,0.742553 0.08513,1.46506 0.252369,2.157635 -8.099987,-0.394894 -15.284963,-4.162585 -20.089867,-9.884972 -0.840042,1.397506 -1.320065,3.01992 -1.320065,4.754925 0,3.279978 1.719901,6.179892 4.335041,7.872607 -1.599895,-0.04998 -3.100106,-0.472609 -4.417425,-1.184955 v 0.120006 c 0,4.584939 3.359891,8.407553 7.819881,9.277527 -0.817523,0.215022 -1.677611,0.332557 -2.567632,0.332557 -0.627491,0 -1.237406,-0.05739 -1.832493,-0.169986 1.239878,3.760002 4.840055,6.494874 9.107542,6.570118 -3.337372,2.539896 -7.54005,4.049993 -12.107415,4.049993 -0.78759,0 -1.562548,-0.04504 -2.32762,-0.132363 4.317466,2.684892 9.437627,4.252383 14.944992,4.252383 17.930036,0 27.735095,-14.419932 27.735095,-26.920044 l -0.02746,-1.225049 c 1.899773,-1.330225 3.552394,-2.995204 4.859827,-4.895252 z"
   id="path4" />
</g>















</svg>
