<?xml version="1.0" encoding="UTF-8" standalone="no"?>
<svg
   enable-background="new 0 0 48 48"
   id="Layer_1"
   version="1.1"
   viewBox="0 0 80 80"
   xml:space="preserve"
   sodipodi:docname="youtube-icon.svg"
   inkscape:version="1.1 (1:1.1+202105261517+ce6663b3b7)"
   width="80"
   height="80"
   xmlns:inkscape="http://www.inkscape.org/namespaces/inkscape"
   xmlns:sodipodi="http://sodipodi.sourceforge.net/DTD/sodipodi-0.dtd"
   xmlns="http://www.w3.org/2000/svg"
   xmlns:svg="http://www.w3.org/2000/svg"><defs
     id="defs9" /><sodipodi:namedview
     id="namedview7"
     pagecolor="#ffffff"
     bordercolor="#666666"
     borderopacity="1.0"
     inkscape:pageshadow="2"
     inkscape:pageopacity="0.0"
     inkscape:pagecheckerboard="0"
     showgrid="false"
     inkscape:zoom="1.3932291"
     inkscape:cx="111.9701"
     inkscape:cy="107.66355"
     inkscape:window-width="1366"
     inkscape:window-height="703"
     inkscape:window-x="0"
     inkscape:window-y="0"
     inkscape:window-maximized="1"
     inkscape:current-layer="Layer_1" /><circle
     cx="40"
     cy="40"
     fill="#CA3737"
     r="40"
     id="circle2"
     style="fill:#ff0000;stroke-width:1" /><path
     d="m 58.666668,30.833334 c 0,-0.166667 0,-0.333333 -0.166667,-0.5 0,0 0,-0.166667 0,-0.166667 -0.5,-1.5 -1.833333,-2.5 -3.5,-2.5 h 0.333333 c 0,0 -6.5,-1 -15.333333,-1 -8.666667,0 -15.333334,1 -15.333334,1 H 25 c -1.666666,0 -3,1 -3.5,2.5 0,0 0,0.166667 0,0.166667 0,0.166667 0,0.333333 -0.166666,0.5 -0.166667,1.666667 -0.666667,5.166667 -0.666667,9.166667 0,4 0.5,7.5 0.666667,9.166667 0,0.166666 0,0.333333 0.166666,0.5 0,0 0,0.166666 0,0.166666 0.5,1.5 1.833334,2.5 3.5,2.5 h -0.333333 c 0,0 6.5,1 15.333334,1 8.666667,0 15.333333,-1 15.333333,-1 h -0.333333 c 1.666667,0 3,-1 3.5,-2.5 0,0 0,-0.166666 0,-0.166666 0,-0.166667 0,-0.333334 0.166667,-0.5 0.166667,-1.666667 0.666667,-5.166667 0.666667,-9.166667 0,-4 -0.333334,-7.5 -0.666667,-9.166667 z m -13,10 -7.833334,5.666667 c -0.166667,0.166667 -0.333333,0.166667 -0.5,0.166667 -0.166667,0 -0.333333,0 -0.5,-0.166667 -0.333333,-0.166667 -0.5,-0.5 -0.5,-0.833333 V 34.333334 c 0,-0.333333 0.166667,-0.666667 0.5,-0.833333 0.333333,-0.166667 0.666667,-0.166667 1,0 l 7.833334,5.666666 c 0.166666,0.166667 0.333333,0.5 0.333333,0.833334 0.166667,0.333333 0,0.666666 -0.333333,0.833333 z"
     fill="#ffffff"
     id="path4"
     style="stroke-width:1" /></svg>
